<?xml version="1.0" encoding="UTF-8"?>
<svg width="1500px" height="1500px" viewBox="0 0 1500 1500" version="1.1" xmlns="http://www.w3.org/2000/svg" xmlns:xlink="http://www.w3.org/1999/xlink">
    <!-- Generator: Sketch 52.4 (67378) - http://www.bohemiancoding.com/sketch -->
    <title>Group 54</title>
    <desc>Created with Sketch.</desc>
    <g id="Page-2" stroke="none" stroke-width="1" fill="none" fill-rule="evenodd">
        <g id="Artboard" transform="translate(-460.000000, -7338.000000)">
            <g id="Group-54" transform="translate(460.000000, 7338.000000)">
                <g id="122" transform="translate(244.000000, 190.000000)">
                    <g id="Group" transform="translate(431.500000, 635.612245)">
                        <path d="M103.25,1.29795918 C68.375,-3.35102041 33.5,22.2183673 28.85,59.4102041 C24.2,94.277551 49.775,129.144898 86.975,133.793878 L124.175,138.442857 L140.45,8.27142857 L103.25,1.29795918 Z" id="Path" fill="#D3503A"></path>
                        <path d="M0.95,217.47551 C-3.7,252.342857 21.875,287.210204 59.075,291.859184 L96.275,296.508163 L112.55,166.336735 L75.35,161.687755 C38.15,157.038776 5.6,182.608163 0.95,217.47551 Z" id="Path" fill="#3DC9AE"></path>
                    </g>
                    <g id="Group">
                        <polygon id="Path" fill="#40596B" points="125.55 104.602041 125.55 476.520408 0 534.632653 0 46.4897959"></polygon>
                        <path d="M827.7,541.606122 L569.625,492.791837 C520.8,653.181633 490.575,825.193878 474.3,1008.82857 C469.65,1062.29184 506.85,1108.78163 560.325,1115.7551 C613.8,1125.05306 664.95,1087.86122 674.25,1034.39796 C706.8,862.385714 760.275,699.671429 827.7,541.606122 Z" id="Path" fill="#40596B"></path>
                        <path d="M1116,320.779592 C1116,497.440816 971.85,641.559184 795.15,641.559184 C744,639.234694 692.85,627.612245 651,604.367347 C495.225,525.334694 327.825,474.195918 153.45,474.195918 L125.55,474.195918 L125.55,104.602041 L132.525,104.602041 C327.825,104.602041 518.475,67.4102041 704.475,11.622449 C734.7,4.64897959 764.925,0 795.15,0 C971.85,0 1116,144.118367 1116,320.779592 Z" id="Path" fill="#5A94F3"></path>
                        <path d="M646.35,167.363265 L943.95,167.363265 C906.75,130.171429 853.275,106.926531 795.15,106.926531 C737.025,106.926531 685.875,130.171429 646.35,167.363265 Z" id="Path" fill="#0D439B"></path>
                        <path d="M585.9,290.561224 L1006.725,290.561224 C1004.4,269.640816 997.425,248.720408 988.125,230.12449 L604.5,230.12449 C595.2,248.720408 588.225,267.316327 585.9,290.561224 Z" id="Path" fill="#0D439B"></path>
                        <path d="M604.5,411.434694 L988.125,411.434694 C997.425,392.838776 1004.4,371.918367 1006.725,350.997959 L585.9,350.997959 C588.225,371.918367 595.2,392.838776 604.5,411.434694 Z" id="Path" fill="#0D439B"></path>
                        <path d="M795.15,532.308163 C853.275,532.308163 904.425,509.063265 943.95,471.871429 L646.35,471.871429 C685.875,509.063265 737.025,532.308163 795.15,532.308163 Z" id="Path" fill="#0D439B"></path>
                    </g>
                </g>
            </g>
        </g>
    </g>
</svg>